<svg height="512" viewBox="0 0 128 128" width="512" xmlns="http://www.w3.org/2000/svg"><g><path d="m101.463 35.581h-74.925a1.75 1.75 0 0 0 -1.75 1.75v34.06a1.75 1.75 0 0 0 1.75 1.75h74.925a1.75 1.75 0 0 0 1.75-1.75v-34.06a1.75 1.75 0 0 0 -1.75-1.75zm-63.127 34.06 1.06-3.952h49.204l1.06 3.952zm61.377 0h-6.425l-1.652-6.155a1.751 1.751 0 0 0 -1.691-1.3h-51.891a1.75 1.75 0 0 0 -1.69 1.3l-1.652 6.155h-6.424v-30.56h71.425z"/><path d="m35.054 47.044h5.7a1.75 1.75 0 0 0 0-3.5h-5.7a1.75 1.75 0 0 0 0 3.5z"/><path d="m48.221 47.044h5.7a1.75 1.75 0 0 0 0-3.5h-5.7a1.75 1.75 0 1 0 0 3.5z"/><path d="m64 77.419a1.751 1.751 0 0 0 -1.75 1.75v11.5a1.75 1.75 0 0 0 3.5 0v-11.5a1.751 1.751 0 0 0 -1.75-1.75z"/><path d="m47.513 77.42a1.755 1.755 0 0 0 -1.82 1.678 16.671 16.671 0 0 1 -5.335 10.302 1.75 1.75 0 1 0 2.418 2.53 20.106 20.106 0 0 0 6.414-12.69 1.75 1.75 0 0 0 -1.677-1.82z"/><path d="m82.306 79.089a1.75 1.75 0 0 0 -3.5.151 20.1 20.1 0 0 0 6.415 12.694 1.75 1.75 0 0 0 2.418-2.53 16.931 16.931 0 0 1 -5.333-10.315z"/><path d="m36.3 58.044a1.751 1.751 0 0 0 1.75 1.75h51.895a1.75 1.75 0 0 0 0-3.5h-51.891a1.751 1.751 0 0 0 -1.754 1.75z"/></g></svg>