<?xml version="1.0" encoding="iso-8859-1"?>
<!-- Generator: Adobe Illustrator 19.0.0, SVG Export Plug-In . SVG Version: 6.00 Build 0)  -->
<svg version="1.1" id="Capa_1" xmlns="http://www.w3.org/2000/svg" xmlns:xlink="http://www.w3.org/1999/xlink" x="0px" y="0px"
	 viewBox="0 0 440 440" style="enable-background:new 0 0 440 440;" xml:space="preserve">
<g>
	<g>
		<path d="M424,170.64h-20V148c0-4.418-3.582-8-8-8h-28c-4.418,0-8,3.582-8,8s3.582,8,8,8h20v14.64h-39.04V148c0-4.418-3.582-8-8-8
			s-8,3.582-8,8v22.64h-38.72V156h20c4.418,0,8-3.582,8-8s-3.582-8-8-8h-28c-4.418,0-8,3.582-8,8v22.64H161.76V148
			c0-4.418-3.582-8-8-8h-28c-4.418,0-8,3.582-8,8s3.582,8,8,8h20v14.64h-38.8V148c0-4.418-3.582-8-8-8s-8,3.582-8,8v22.64H52V156h20
			c4.418,0,8-3.582,8-8s-3.582-8-8-8H44c-4.418,0-8,3.582-8,8v22.64H16c-8.837,0-16,7.163-16,16V260c0,8.837,7.163,16,16,16h6.64v16
			c0,4.418,3.582,8,8,8s8-3.582,8-8v-16h362.72v16c0,4.418,3.582,8,8,8s8-3.582,8-8v-16H424c8.837,0,16-7.163,16-16v-73.36
			C440,177.803,432.837,170.64,424,170.64z M424,260H16v-73.36h408V260z"/>
	</g>
</g>
<g>
	<g>
		<path d="M98.96,196c-14.845,0-26.88,12.035-26.88,26.88s12.035,26.88,26.88,26.88s26.88-12.035,26.88-26.88S113.805,196,98.96,196
			z M98.96,233.76c-6.009,0-10.88-4.871-10.88-10.88S92.951,212,98.96,212s10.88,4.871,10.88,10.88S104.969,233.76,98.96,233.76z"/>
	</g>
</g>
<g>
	<g>
		<path d="M340.96,196c-14.845,0-26.88,12.035-26.88,26.88s12.035,26.88,26.88,26.88s26.88-12.035,26.88-26.88
			S355.805,196,340.96,196z M340.96,233.76c-6.009,0-10.88-4.871-10.88-10.88S334.951,212,340.96,212s10.88,4.871,10.88,10.88
			S346.969,233.76,340.96,233.76z"/>
	</g>
</g>
<g>
	<g>
		<path d="M286.24,214.88H153.76c-4.418,0-8,3.582-8,8s3.582,8,8,8h132.48c4.418,0,8-3.582,8-8S290.658,214.88,286.24,214.88z"/>
	</g>
</g>
<g>
</g>
<g>
</g>
<g>
</g>
<g>
</g>
<g>
</g>
<g>
</g>
<g>
</g>
<g>
</g>
<g>
</g>
<g>
</g>
<g>
</g>
<g>
</g>
<g>
</g>
<g>
</g>
<g>
</g>
</svg>
